<?xml version="1.0" encoding="UTF-8" standalone="no"?>
<!-- Created with Inkscape (http://www.inkscape.org/) -->

<svg
   width="507.96796mm"
   height="379.884mm"
   viewBox="0 0 507.96796 379.884"
   version="1.1"
   id="svg5"
   xml:space="preserve"
   xmlns="http://www.w3.org/2000/svg"
   xmlns:svg="http://www.w3.org/2000/svg"><defs
     id="defs2" /><g
     id="layer1"
     transform="translate(4033.3023,10853.497)"><path
       style="fill:#000000;stroke-width:1"
       d="m -3756.0802,-10477.147 c 0.2652,-4.174 -0.8265,-8.963 -3.2057,-14.069 -1.6514,-3.542 -7.0374,-11.806 -10.5746,-16.226 -1.0362,-1.295 -1.8843,-2.541 -1.8843,-2.767 0,-0.229 0.6677,-0.719 1.4818,-1.09 5.0992,-2.324 21.615,-14.498 29.6208,-21.834 l 4.7214,-4.327 2.9991,0.782 c 1.6483,0.428 4.1247,0.95 5.5016,1.156 l 2.5041,0.375 -0.3515,2.519 c -2.6537,19.017 -12.6686,39.73 -25.9556,53.678 l -5.0822,5.337 z m -80.8456,-13.136 c 2.72,-2.064 5.6111,-6.111 6.4237,-8.997 0.3099,-1.099 1.064,-4.814 1.6761,-8.256 3.3075,-18.605 12.519,-34.343 28.4026,-48.523 l 3.6868,-3.291 5.8316,2.338 c 3.2088,1.286 9.8006,3.713 14.65,5.394 l 8.8169,3.054 -7.9996,0.938 c -4.4007,0.516 -9.3365,0.934 -10.9663,0.931 -2.1634,0 -2.8018,0.157 -2.3638,0.595 0.3762,0.377 5.5525,0.785 13.8435,1.094 7.2842,0.271 14.2229,0.555 15.4195,0.63 l 2.1756,0.139 -3.1887,1.485 c -1.7532,0.817 -7.1145,2.894 -11.9115,4.615 -4.7985,1.722 -8.3219,3.21 -7.83,3.307 0.4903,0.09 4.356,-0.461 8.5871,-1.239 4.2326,-0.777 7.7668,-1.343 7.8531,-1.255 0.3192,0.317 -13.9515,12.048 -20.7576,17.063 -3.8626,2.845 -10.2046,7.156 -14.0934,9.581 -10.4035,6.484 -10.294,6.651 0.9005,1.367 15.2822,-7.215 32.3885,-18.857 46.5806,-31.703 2.905,-2.63 5.3397,-4.923 5.4106,-5.097 0.2205,-0.545 -16.1688,-8.06 -22.4969,-10.316 -16.286,-5.805 -33.8457,-13.982 -45.0818,-20.992 -20.2072,-12.607 -36.5086,-29.072 -47.8033,-48.285 -3.8456,-6.542 -5.9936,-11.22 -9.5956,-20.902 -1.5404,-4.139 -3.3244,-8.461 -3.9658,-9.605 -2.2651,-4.044 -11.4891,-8.894 -20.1702,-10.604 -5.2642,-1.036 -12.5653,-0.379 -20.1871,1.817 -6.0151,1.733 -17.2019,7.066 -24.4784,11.669 -25.4019,16.073 -40.1059,22.657 -61.9876,27.752 -6.4454,1.5 -20.0838,3.656 -25.8615,4.088 -2.5442,0.189 -5.1131,0.459 -5.7114,0.598 -0.5998,0.139 0.3146,-0.477 2.0292,-1.368 9.887,-5.138 12.1567,-10.106 16.7532,-36.666 1.9228,-11.114 2.8418,-19.855 4.3375,-41.262 2.7509,-39.398 5.9273,-62.49 10.8029,-78.559 1.1734,-3.864 2.2913,-8.154 2.4856,-9.535 0.7062,-5.021 -1.9274,-13.454 -5.9534,-19.056 -1.0424,-1.452 -1.8165,-2.64 -1.7178,-2.64 0.6137,0 7.9256,3.229 12.4358,5.491 6.0151,3.019 16.8026,10.125 23.1446,15.246 2.3221,1.875 7.7837,6.971 12.1366,11.327 12.6008,12.603 18.6837,20.287 31.303,39.535 4.0954,6.245 8.8091,13.437 10.476,15.979 5.6512,8.62 9.4613,11.81 15.865,13.276 5.3552,1.228 16.6669,2.121 23.5116,1.857 8.8754,-0.344 9.8314,-0.882 22.4414,-12.66 37.9843,-35.473 70.4329,-51.844 116.1361,-58.593 7.4029,-1.095 10.5546,-1.248 25.8384,-1.257 11.6447,0 19.117,0.23 22.574,0.717 5.6481,0.794 20.1918,3.741 22.1593,4.489 1.3692,0.521 1.4741,0.371 0.7062,-1.009 -0.2899,-0.519 -1.1565,-3.341 -1.9274,-6.269 -0.771,-2.929 -2.1449,-7.457 -3.0546,-10.063 -1.9028,-5.446 -8.6025,-19.313 -10.3079,-21.33 -0.9206,-1.09 -1.067,-1.144 -0.7355,-0.271 3.8117,10.013 11.1929,35.73 10.4636,36.457 -0.1079,0.108 -3.9242,-0.704 -8.4761,-1.81 l -8.2756,-2.01 -1.1796,-3.536 c -0.6491,-1.945 -1.838,-5.127 -2.6398,-7.071 -1.7254,-4.179 -6.7753,-13.389 -6.2633,-11.423 1.5897,6.103 4.5379,18.024 4.8201,19.49 0.643,3.337 -0.7263,1.568 -3.0932,-3.997 -2.8757,-6.755 -10.1537,-19.524 -15.0509,-26.404 -3.5865,-5.041 -12.5421,-14.954 -10.5345,-11.663 6.0028,9.844 8.5392,14.332 12.2954,21.758 4.1602,8.225 9.8114,20.489 9.5292,20.681 -0.4965,0.336 -14.5451,-1.137 -14.5451,-1.525 0,-0.999 -6.0491,-12.828 -9.7004,-18.969 -3.9705,-6.677 -10.4775,-15.757 -12.61,-17.594 -1.1965,-1.031 -1.1858,-0.961 0.2159,1.36 2.5858,4.282 6.3312,11.926 11.2377,22.932 6.1878,13.877 5.9025,12.665 3.0206,12.85 l -2.3807,0.155 -2.2574,-4.113 c -3.2258,-5.878 -12.2246,-19.189 -17.3361,-25.645 -4.5056,-5.692 -11.5353,-13.428 -11.8853,-13.078 -0.1079,0.108 2.2266,3.848 5.1902,8.308 4.854,7.309 11.691,18.835 17.922,30.216 l 2.2743,4.156 -1.4787,0.372 c -1.1873,0.297 -1.6714,0.107 -2.447,-0.958 -3.0115,-4.132 -11.2161,-14.066 -16.5759,-20.064 -8.3466,-9.341 -19.7816,-18.884 -28.1929,-23.528 l -2.72,-1.502 1.6314,1.445 c 0.8989,0.794 3.8009,3.327 6.4515,5.629 6.2834,5.457 18.363,19.133 29.1612,33.015 l 5.0776,6.527 -2.9374,0.339 c -1.616,0.185 -4.0553,0.512 -5.4199,0.726 l -2.481,0.389 -4.0137,-5.079 c -5.1593,-6.526 -19.0553,-20.417 -25.0566,-25.048 -5.0884,-3.924 -16.8118,-11.506 -17.1973,-11.12 -0.1387,0.139 1.303,1.417 3.1919,2.853 5.5587,4.229 14.1858,12.418 20.8146,19.758 6.4053,7.093 16.0501,18.579 16.064,19.129 0,0.173 -1.249,0.605 -2.7863,0.959 l -2.794,0.645 -4.9573,-4.774 c -11.0789,-10.672 -24.7513,-20.423 -35.9088,-25.608 -2.0631,-0.96 -3.8286,-1.669 -3.9227,-1.575 -0.092,0.09 2.6969,2.176 6.2001,4.624 7.3597,5.146 16.6392,13.072 25.954,22.167 l 6.5286,6.376 -5.44,1.727 -5.4399,1.727 -4.8957,-4.107 c -6.285,-5.272 -11.3117,-8.968 -17.3777,-12.777 -5.4045,-3.392 -18.7516,-10.323 -19.1386,-9.936 -0.1388,0.139 2.8819,2.421 6.7059,5.076 3.824,2.654 8.914,6.404 11.3102,8.331 6.1169,4.92 17.6845,14.891 17.683,15.241 0,0.161 -1.3754,0.832 -3.0546,1.492 l -3.0515,1.198 -3.8857,-2.621 c -10.2077,-6.888 -26.964,-14.704 -40.5161,-18.898 -0.4934,-0.154 3.0314,1.776 7.8315,4.283 10.9617,5.729 23.8169,13.607 30.0417,18.411 l 1.2351,0.953 -4.1078,2.059 -4.1077,2.057 -6.103,-3.07 c -3.3568,-1.689 -9.0404,-4.29 -12.6301,-5.78 -6.4299,-2.669 -22.574,-8.368 -22.574,-7.968 0,0.108 5.201,2.877 11.5584,6.141 6.3574,3.266 14.5621,7.611 18.2319,9.657 l 6.672,3.72 -3.6482,2.299 -3.6498,2.3 -6.0151,-2.157 c -3.3075,-1.186 -10.5438,-3.499 -16.0779,-5.138 -5.5355,-1.639 -10.3695,-3.085 -10.7442,-3.212 -0.3732,-0.123 -0.68,0 -0.68,0.295 0,0.29 0.2251,0.527 0.5011,0.527 0.2745,0 4.1293,1.738 8.5671,3.861 4.4377,2.123 10.5145,4.964 13.5074,6.31 2.9913,1.348 5.497,2.502 5.5664,2.569 0.077,0.06 -1.4464,1.273 -3.3707,2.687 l -3.4987,2.569 -3.1563,-0.814 c -5.3197,-1.372 -16.1334,-3.571 -16.3739,-3.331 -0.1234,0.124 3.2365,1.896 7.4692,3.932 l 7.6973,3.706 -3.9211,3.204 -3.9212,3.202 -5.4847,-1.228 c -3.0176,-0.676 -6.1585,-1.431 -6.9804,-1.68 -2.6105,-0.788 -1.6175,0.364 1.9028,2.208 1.8704,0.981 4.1864,2.253 5.1485,2.828 l 1.7486,1.047 -3.3799,3.214 c -1.8596,1.767 -3.6714,3.221 -4.026,3.232 -0.3547,0.01 -4.6243,-1.934 -9.4892,-4.319 -4.8633,-2.386 -8.9109,-4.27 -8.991,-4.188 -0.2082,0.206 6.9125,6.097 11.6046,9.601 l 3.9042,2.915 -2.6429,2.698 c -2.0893,2.133 -2.9081,2.635 -3.9042,2.395 -1.4016,-0.338 -27.59,-10.872 -29.0224,-11.674 -0.8018,-0.449 -0.7031,-0.74 0.8434,-2.501 l 1.7501,-1.994 -4.2419,-1.96 -4.2418,-1.96 2.6151,-2.266 2.6136,-2.269 -2.922,-2.255 c -3.1348,-2.42 -6.2557,-5.476 -5.8748,-5.753 0.1234,-0.09 1.7008,-0.608 3.4956,-1.143 3.7485,-1.115 7.3427,-3.258 7.3427,-4.376 0,-0.421 -1.3924,-1.753 -3.0947,-2.961 -1.9567,-1.387 -2.8078,-2.283 -2.3113,-2.433 6.9202,-2.084 14.9553,-5.953 14.3616,-6.914 -0.1742,-0.28 -0.515,-0.51 -0.7571,-0.51 -0.2436,0 -1.7393,-0.572 -3.3229,-1.271 l -2.8803,-1.272 3.7623,-0.922 c 7.5987,-1.864 14.0703,-4.695 10.7335,-4.695 -1.6792,0 -7.3073,-1.786 -6.8647,-2.177 0.2405,-0.213 3.1795,-1.313 6.5286,-2.443 7.2224,-2.438 12.0996,-5.006 13.2021,-6.952 0.7216,-1.276 0.7016,-1.515 -0.2251,-2.538 -1.2521,-1.384 -4.868,-2.5 -11.8668,-3.667 -2.9205,-0.487 -5.2303,-0.967 -5.1316,-1.064 0.093,-0.09 2.9775,-0.548 6.3975,-0.999 14.8844,-1.968 27.0256,-7.19 30.1357,-12.963 1.0116,-1.879 1.0146,-1.999 0.077,-3.027 -1.6591,-1.832 -5.8701,-2.467 -15.976,-2.412 -5.1609,0.03 -9.3828,-0.03 -9.3828,-0.139 0,-0.354 10.5793,-3.583 16.8627,-5.144 10.6549,-2.647 16.8704,-3.535 30.4627,-4.356 4.9357,-0.297 10.2585,-0.912 11.8282,-1.366 6.9804,-2.023 9.1992,-7.666 4.925,-12.534 -0.899,-1.024 -1.468,-1.863 -1.2613,-1.863 0.9914,0 9.4274,2.358 12.9292,3.613 2.1695,0.779 6.9865,2.757 10.7041,4.398 7.7113,3.401 9.981,3.746 11.5877,1.76 2.35,-2.9 -0.6661,-10.605 -6.6041,-16.868 -1.9722,-2.081 -3.5033,-3.783 -3.4046,-3.783 0.093,0 3.8934,1.793 8.4313,3.985 10.2154,4.929 16.2876,8.673 26.2578,16.184 8.3203,6.269 9.5986,6.96 10.8861,5.89 2.1094,-1.75 2.6583,-3.878 2.6121,-10.106 l -0.046,-6.08 3.3106,2.231 c 7.6249,5.14 12.3324,9.428 25.9848,23.671 7.6727,8.004 8.6503,8.505 10.0627,5.159 0.7386,-1.751 0.7725,-2.712 0.2328,-6.804 -0.6954,-5.285 -2.757,-12.356 -4.7584,-16.314 -0.717,-1.422 -1.1441,-2.584 -0.9483,-2.584 0.6908,0 7.5972,5.876 11.9007,10.125 2.3931,2.363 6.5363,6.989 9.2039,10.278 8.8955,10.961 10.2863,11.99 12.664,9.379 1.6745,-1.838 2.4948,-3.628 3.1656,-6.902 l 0.6044,-2.957 2.5396,3.559 c 3.3707,4.724 9.1437,16.736 11.4751,23.881 1.7717,5.431 3.6375,14.376 4.4393,21.29 l 0.3608,3.105 6.6042,4.748 c 11.0233,7.927 17.0662,13.05 26.5013,22.468 11.247,11.227 20.1471,22.293 28.9608,36.006 11.4721,17.851 24.8114,44.673 31.6499,63.637 l 2.0863,5.783 3.511,0.581 c 6.527,1.082 9.9039,4.731 9.9039,10.701 0,3.548 -1.2644,6.396 -4.1016,9.232 -2.7369,2.736 -3.1532,2.377 -1.3091,-1.129 1.8858,-3.585 2.0323,-6.051 0.4749,-8.031 -1.3414,-1.705 -3.2396,-1.847 -7.6125,-0.57 -3.5866,1.047 -11.4952,5.128 -16.9152,8.727 -9.4706,6.29 -19.3113,18.345 -24.0913,29.513 -1.8056,4.22 -1.8596,4.495 -0.717,3.676 8.6735,-6.219 17.3561,-7.32 35.5048,-4.502 5.0853,0.789 12.1844,1.589 15.7756,1.777 7.1439,0.377 8.4314,0.906 8.4314,3.467 0,3.372 -3.8425,6.74 -9.668,8.474 -4.3745,1.303 -8.0335,1.168 -11.819,-0.438 -4.5996,-1.949 -18.4463,-2.997 -27.4836,-2.081 -6.5101,0.661 -13.0402,2.154 -15.9098,3.637 -0.9236,0.478 -2.8572,0.887 -4.2989,0.908 -2.1726,0.03 -2.8973,-0.226 -4.245,-1.517 -2.6429,-2.532 -3.437,-5.409 -3.1856,-11.546 0.185,-4.539 0.4625,-5.852 1.8796,-8.865 2.0693,-4.397 6.2788,-9.709 10.7011,-13.505 9.5477,-8.199 22.8423,-17.076 34.9265,-23.322 4.188,-2.167 7.3705,-3.943 7.0714,-3.949 -1.0902,-0.02 -9.9039,2.217 -14.1427,3.597 -5.4909,1.786 -13.1929,5.021 -19.8556,8.334 -9.3103,4.635 -18.1718,8.176 -20.4385,8.169 -3.6097,-0.02 -7.2055,-2.181 -14.0347,-8.48 -9.2594,-8.544 -13.4689,-11.952 -20.3599,-16.49 -3.3568,-2.211 -5.9997,-4.124 -5.8717,-4.252 0.1234,-0.124 0.7124,0.01 1.2983,0.337 2.3129,1.237 6.0105,1.701 8.7999,1.103 1.5065,-0.324 2.7385,-0.813 2.7385,-1.087 0,-0.273 -0.2128,-0.498 -0.4734,-0.498 -1.306,0 -9.5354,-6.082 -13.1713,-9.73 -4.5287,-4.549 -6.6781,-8.35 -7.6511,-13.534 -1.1996,-6.393 0.5921,-16.975 4.1432,-24.469 1.0269,-2.169 1.7748,-3.944 1.6607,-3.944 -0.4194,0 -7.8315,10.184 -10.0936,13.871 -3.639,5.931 -9.3488,18.186 -12.9245,27.743 -5.0545,13.512 -9.2286,26.281 -9.9425,30.427 -2.4532,14.218 4.632,28.187 17.5072,34.515 6.4839,3.187 11.8329,4.415 19.2018,4.404 12.5869,-0.02 15.8898,-1.669 29.6115,-14.818 9.9332,-9.52 17.5427,-15.412 22.588,-17.489 2.9111,-1.198 2.925,-1.161 0.5412,1.446 -6.4931,7.099 -13.6971,17.053 -16.7347,23.119 -6.8108,13.606 -3.6205,24.618 7.1299,24.611 1.7316,0 6.6735,-0.728 10.9802,-1.615 9.5169,-1.961 20.6543,-2.851 32.9004,-2.629 l 9.1823,0.167 -2.4594,2.72 c -7.3103,8.089 -17.6429,10.17 -40.6549,8.189 -10.3186,-0.888 -31.5635,-3.519 -37.4707,-4.641 -1.6129,-0.306 -6.8231,-0.557 -11.5816,-0.557 -17.6043,0 -29.4819,-2.604 -42.2014,-9.256 -21.0013,-10.982 -34.6629,-27.727 -38.8231,-47.588 -0.9328,-4.454 -0.7972,-15.277 0.2652,-21.186 1.1133,-6.192 2.5288,-10.425 5.2843,-15.816 2.6043,-5.091 1.323,-4.359 -2.5411,1.453 -4.6243,6.957 -7.4183,14.753 -8.2278,22.964 l -0.4225,4.276 -2.2143,-3.46 c -7.1145,-11.116 -20.3243,-23.7 -35.6343,-33.946 -13.9854,-9.36 -27.8321,-14.663 -39.981,-15.312 -20.3722,-1.088 -35.8086,8.068 -41.7959,24.79 -1.633,4.56 -1.6777,4.947 -1.6777,14.206 0,10.222 0.569,16.863 1.4464,16.863 0.3145,0 0.3993,-0.654 0.2004,-1.558 -0.5952,-2.712 0.7648,-15.055 2.2112,-20.079 2.2913,-7.955 4.7445,-12.32 9.7111,-17.282 11.0511,-11.042 25.4066,-13.335 44.1721,-7.056 14.7409,4.933 28.3471,14.107 41.9794,28.31 7.1053,7.402 10.7473,11.983 6.0089,7.557 -8.9232,-8.332 -20.5047,-16.91 -28.0988,-20.811 -9.4228,-4.84 -20.2534,-7.095 -30.5783,-6.367 -5.5494,0.392 -12.5113,1.749 -12.5113,2.438 0,0.233 1.6622,0.576 3.6945,0.766 5.2919,0.492 11.3518,2.159 18.2859,5.031 3.3183,1.376 9.89,3.939 14.6022,5.698 11.2284,4.189 16.5528,6.774 23.4345,11.376 5.5139,3.687 14.9984,12.143 18.3121,16.327 l 1.6437,2.077 -2.4193,2.834 c -4.8602,5.696 -7.9256,13.462 -7.9256,20.083 v 3.35 l -1.7686,-1.327 c -0.973,-0.73 -3.1147,-2.027 -4.76,-2.883 -2.8757,-1.497 -3.2859,-1.557 -10.607,-1.557 -4.1879,0 -10.0628,0.183 -13.0557,0.407 l -5.4384,0.408 2.3869,-1.141 c 1.3138,-0.627 4.4855,-1.659 7.0498,-2.293 6.2109,-1.532 4.8448,-1.864 -8.3496,-2.018 -5.6836,-0.06 -12.9046,-0.274 -16.047,-0.463 l -5.7114,-0.34 6.2557,-1.191 c 11.6663,-2.219 14.9429,-2.556 25.1059,-2.587 5.5818,-0.02 9.8653,-0.214 9.52,-0.44 -1.2398,-0.806 -10.789,-3.686 -15.7232,-4.741 -8.2818,-1.769 -31.5343,-5.6 -33.7223,-5.556 -2.535,0.05 -8.16,1.565 -10.9232,2.938 -2.6814,1.332 -2.3746,1.693 4.5426,5.329 2.9837,1.569 5.4245,3.028 5.4245,3.244 0,0.214 -0.9791,0.833 -2.1756,1.372 -1.1966,0.54 -2.1757,1.168 -2.1757,1.397 0,0.676 4.0985,3.723 8.8322,6.567 7.0375,4.23 17.2713,6.995 25.8923,6.995 1.7024,0 7.0514,-0.495 11.8853,-1.1 12.0473,-1.506 13.3795,-1.19 23.3836,5.556 5.9905,4.038 9.1977,5.745 9.7528,5.19 0.1604,-0.162 -0.1804,-1.235 -0.7586,-2.385 -2.6074,-5.187 -3.1548,-13.37 -1.2598,-18.82 1.2151,-3.494 4.0661,-8.059 6.4669,-10.357 l 1.5851,-1.519 0.9452,5.758 c 3.1533,19.217 10.5778,33.617 23.894,46.349 10.5808,10.115 24.5709,17.27 37.8038,19.333 l 4.1587,0.649 -4.0785,0.952 c -16.5111,3.848 -45.7757,3.335 -67.1794,-1.18 -9.6973,-2.046 -8.3589,-2.257 -12.8675,2.032 -10.1229,9.633 -25.2863,21.574 -35.3552,27.842 -11.5091,7.165 -26.0188,14.087 -38.8123,18.518 -6.3697,2.207 -20.1578,5.991 -21.8246,5.991 -0.458,0 0.2251,-0.804 1.5203,-1.786 z m 244.3471,-81.576 c 0.4256,-0.673 1.4433,-3.55 2.2651,-6.392 1.7841,-6.178 4.8479,-13.316 7.8038,-18.181 2.6583,-4.377 9.6958,-13.62 13.5275,-17.766 1.5712,-1.701 2.8557,-3.246 2.8557,-3.435 0,-0.68 -5.7916,2.602 -9.7914,5.551 -6.4021,4.718 -16.673,15.45 -19.8016,20.691 -4.1263,6.909 -5.1624,12.724 -3.0839,17.301 1.5944,3.511 4.7137,4.628 6.2248,2.231 z m -80.6436,-11.694 c -7.8346,-7.886 -11.2793,-15.349 -11.8637,-25.703 -0.6261,-11.068 2.74,-22.67 13.9638,-48.141 1.8457,-4.188 5.8023,-13.491 8.7922,-20.671 2.9913,-7.18 5.7931,-13.605 6.2279,-14.279 1.7547,-2.715 -0.478,-0.876 -6.928,5.712 -7.7004,7.864 -11.1713,12.303 -16.8765,21.581 -2.1927,3.568 -4.2789,6.582 -4.6367,6.698 -1.9336,0.634 -1.5712,-11.699 0.5197,-17.672 0.7586,-2.168 1.2644,-3.943 1.1241,-3.943 -0.7911,0 -8.1245,5.741 -11.7743,9.218 -11.5939,11.045 -17.6923,27.995 -14.8567,41.299 1.0162,4.765 3.5095,9.517 5.1208,9.759 1.2567,0.188 4.9173,-1.536 7.6064,-3.583 0.9792,-0.745 3.4602,-3.587 5.514,-6.313 3.3522,-4.452 8.1276,-9.617 7.6003,-8.223 -0.108,0.299 -0.9977,2.161 -1.966,4.14 -4.5457,9.291 -5.3922,22.6 -2.094,32.92 1.6037,5.021 5.4909,11.295 9.0898,14.676 2.6737,2.511 9.6664,7.827 10.2956,7.827 0.2251,0 -1.9614,-2.387 -4.8587,-5.302 z m -77.8512,-29.925 c 0,-0.879 -6.7429,-4.327 -14.4156,-7.369 -5.8702,-2.328 -28.8775,-8.955 -38.2726,-11.023 -6.3636,-1.402 -6.9989,-1.447 -11.9084,-0.844 -6.3066,0.776 -11.8699,2.124 -12.6517,3.066 -0.8265,0.994 2.6075,3.693 6.8725,5.4 8.2555,3.304 10.7797,3.683 27.4018,4.12 14.3617,0.376 16.1041,0.53 23.6627,2.1 4.4886,0.933 10.4852,2.407 13.327,3.276 5.9288,1.817 5.9843,1.828 5.9843,1.274 z m 5.4816,-5.247 c -1.0007,-1.206 -8.0721,-5.909 -12.61,-8.388 -10.7412,-5.866 -31.4695,-14.291 -40.4683,-16.45 -10.7165,-2.57 -24.3411,-0.373 -29.7826,4.802 -1.7332,1.648 -1.9691,2.598 -0.4441,1.782 2.1479,-1.15 9.0697,-0.616 17.8063,1.37 4.6752,1.062 13.176,2.656 18.8919,3.541 16.7455,2.592 27.2863,5.561 39.2656,11.058 6.7985,3.119 8.4638,3.639 7.3412,2.285 z m 4.6505,-4.917 c -4.5302,-6.914 -33.7331,-25.005 -47.1881,-29.231 -3.568,-1.121 -5.0699,-1.258 -13.5336,-1.246 -10.0627,0.02 -13.1528,0.523 -19.1078,3.135 l -2.7431,1.203 5.0792,0.03 c 6.3096,0.05 11.7912,1.188 23.2926,4.873 4.9404,1.584 11.4304,3.496 14.4218,4.253 13.2746,3.352 25.4914,8.659 35.0792,15.237 2.8387,1.948 5.2595,3.443 5.3783,3.325 0.1233,-0.124 -0.1866,-0.832 -0.6785,-1.581 z m -248.7124,-15.517 c 17.8449,-5.198 35.0962,-13.341 52.642,-24.848 3.7947,-2.488 7.0436,-4.759 7.2224,-5.047 0.4565,-0.739 -7.9502,3.261 -29.3509,13.962 -10.1722,5.089 -22.5339,11.033 -27.4697,13.212 -11.7064,5.167 -11.8359,5.282 -3.0438,2.721 z m 426.1392,-2.951 c 0.8095,-0.418 1.9367,-1.275 2.5057,-1.905 l 1.0346,-1.144 h -2.6675 c -5.4955,0 -9.0312,-1.955 -11.2208,-6.184 -1.1194,-2.162 -1.1734,-2.193 -1.4987,-0.884 -1.6499,6.646 5.9735,13.157 11.8467,10.12 z m -48.1379,-5.491 c 6.6936,-1.744 12.0688,-5.44 15.5998,-10.73 6.7861,-10.16 5.5649,-23.242 -2.9574,-31.709 -5.4446,-5.409 -11.2408,-7.864 -18.5989,-7.876 -17.535,-0.03 -30.7063,17.971 -24.7051,33.764 3.0515,8.032 10.4683,14.334 19.4208,16.5 4.2203,1.022 7.4569,1.036 11.2408,0.05 z m -11.4335,-4.839 c -5.6759,-1.859 -11.0773,-6.678 -13.657,-12.183 -1.2274,-2.616 -1.4572,-3.842 -1.4479,-7.732 0,-4.051 0.2236,-5.08 1.7362,-8.291 4.4732,-9.497 14.2723,-14.364 24.6572,-12.247 5.5942,1.141 8.9788,2.844 12.3757,6.224 4.0044,3.984 6.2757,8.935 6.1971,13.512 -0.108,6.09 -3.1009,12.258 -7.7869,16.025 -1.1672,0.938 -3.7423,2.463 -5.7237,3.389 -3.0885,1.445 -4.3482,1.712 -8.8307,1.869 -3.4431,0.124 -6.012,-0.08 -7.52,-0.566 z m 11.6185,-5.861 c 1.5389,-0.569 4.3205,-2.02 6.1817,-3.222 3.3059,-2.137 4.6582,-2.457 3.2581,-0.77 -0.3839,0.463 -0.5798,0.961 -0.4348,1.107 0.5612,0.562 5.9796,-5.848 7.2486,-8.574 2.4055,-5.169 1.8057,-7.301 -3.7376,-13.29 -3.124,-3.374 -6.2094,-5.13 -10.2832,-5.855 -2.3592,-0.42 -2.6044,0.159 -0.953,2.257 1.7733,2.253 1.3585,3.019 -0.8295,1.534 -1.6761,-1.137 -6.0367,-2.473 -8.0736,-2.473 -0.3794,0 -1.9614,0.378 -3.5172,0.839 -6.4546,1.917 -11.1945,9.349 -9.8345,15.421 0.7062,3.15 2.2157,5.186 5.1007,6.876 4.6521,2.726 10.6379,2.305 16.3816,-1.154 1.6946,-1.021 3.161,-1.855 3.2581,-1.855 0.093,0 -0.062,0.706 -0.37,1.571 -0.7078,2.03 -3.8996,5.747 -6.7075,7.81 -2.3977,1.764 -1.9721,1.735 3.3121,-0.222 z m -13.6786,-9.927 c -5.13,-2.28 -6.6427,-8.863 -2.9913,-13.021 1.6067,-1.829 5.1593,-3.309 6.7413,-2.807 0.4811,0.154 1.2644,0.401 1.7424,0.552 0.7016,0.222 0.5443,0.582 -0.8156,1.851 -2.1742,2.03 -2.2035,3.965 -0.093,6.075 1.7979,1.798 4.0029,2.075 5.9057,0.743 1.1564,-0.809 1.2089,-0.785 1.2089,0.571 0,2.1 -1.4556,4.536 -3.4262,5.737 -2.0323,1.238 -5.844,1.377 -8.2695,0.299 z m -359.5596,12.749 c 15.0232,-3.616 27.3988,-8.003 37.8239,-13.407 10.0704,-5.22 10.1552,-6.003 0.2529,-2.35 -4.7862,1.767 -18.1271,6.547 -29.6454,10.626 -11.5183,4.076 -21.0661,7.541 -21.2156,7.697 -0.4395,0.459 3.5048,-0.332 12.7842,-2.566 z m 135.0758,-4.774 c -0.1079,-0.225 -1.03,-1.713 -2.0569,-3.307 -2.0231,-3.138 -2.242,-3.055 -2.8912,1.101 -0.3099,1.983 -0.2883,2.012 1.6869,2.22 1.0994,0.123 2.3268,0.253 2.7246,0.302 0.3994,0.05 0.6415,-0.09 0.5366,-0.316 z m -14.0039,-0.68 h 3.7592 l -4.0753,-5.008 c -2.242,-2.754 -4.0754,-5.324 -4.0754,-5.711 0,-0.517 1.1519,-0.703 4.3514,-0.703 3.2504,0 4.3514,-0.184 4.3514,-0.722 0,-0.396 -1.101,-2.139 -2.4471,-3.873 -1.3477,-1.734 -2.4486,-3.368 -2.4486,-3.632 0,-0.262 1.4078,-0.507 3.1286,-0.542 1.7193,-0.03 3.8595,-0.221 4.7553,-0.412 l 1.6283,-0.349 -1.693,-1.205 c -0.9298,-0.664 -2.1171,-1.854 -2.6367,-2.648 -1.1565,-1.766 -0.5027,-2.371 2.5688,-2.385 1.1226,0 2.04,-0.212 2.04,-0.461 0,-0.249 -0.9791,-1.24 -2.1757,-2.201 -1.2458,-1.002 -2.1756,-2.22 -2.1756,-2.851 0,-1.018 0.2266,-1.073 2.9913,-0.728 1.6453,0.207 2.9914,0.193 2.9914,-0.03 0,-0.222 -0.7956,-1.293 -1.7671,-2.38 -0.9729,-1.085 -2.1602,-2.576 -2.6398,-3.313 l -0.8727,-1.34 -1.7116,2.976 c -4.2912,7.458 -7.9734,19.379 -8.7937,28.473 -0.7524,8.334 -0.7016,9.77 0.3269,9.375 0.4734,-0.182 2.5519,-0.33 4.6197,-0.33 z m 130.7815,-2.727 c -0.199,-0.901 -0.8003,-3.166 -1.34,-5.032 l -0.9791,-3.392 -1.1149,2.543 c -0.6136,1.398 -1.3507,3.396 -1.639,4.439 l -0.5228,1.896 2.5273,0.528 c 1.3893,0.291 2.7292,0.558 2.9775,0.593 0.2482,0.03 0.2883,-0.673 0.092,-1.575 z m -110.1519,-3.027 c 0,-0.173 -1.1919,-1.704 -2.6506,-3.4 -1.4586,-1.696 -2.9543,-3.672 -3.3244,-4.387 l -0.6738,-1.303 5.773,0.387 c 3.1749,0.213 5.7715,0.208 5.7715,-0.01 0,-0.219 -1.4679,-1.928 -3.2627,-3.797 -3.7732,-3.93 -4.2404,-5.461 -1.4957,-4.9 4.376,0.894 6.3913,1.005 6.3913,0.352 0,-0.361 -1.3846,-2.108 -3.0746,-3.881 l -3.0746,-3.223 h 3.346 c 1.8411,0 3.346,-0.139 3.346,-0.298 0,-0.165 -0.9791,-2.083 -2.1757,-4.263 -1.1965,-2.181 -2.1757,-4.126 -2.1757,-4.325 0,-0.199 2.774,-0.363 6.1647,-0.363 3.3908,0 6.322,-0.155 6.5147,-0.348 0.1912,-0.191 -0.8326,-1.844 -2.2774,-3.672 -3.5157,-4.45 -5.736,-7.897 -5.3429,-8.291 0.1774,-0.177 2.1742,0.09 4.4378,0.594 5.9873,1.332 6.2232,1.123 3.0422,-2.697 -1.4957,-1.795 -2.7261,-3.569 -2.7339,-3.944 0,-0.504 1.5389,-0.68 5.9705,-0.68 3.2905,0 5.9719,-0.184 5.9596,-0.409 0,-0.223 -1.8257,-1.67 -4.0276,-3.215 l -4.0029,-2.808 -1.821,2.259 c -13.3301,16.545 -21.891,35.015 -25.1769,54.32 -0.3392,1.992 -0.3284,2.008 1.7162,2.22 3.4941,0.364 8.8569,0.414 8.8569,0.08 z m 128.6243,-2.379 c 0.5798,-0.64 3.1471,-2.7 5.7052,-4.577 2.5597,-1.878 7.8362,-5.75 11.725,-8.602 3.8903,-2.855 9.0296,-6.44 11.4242,-7.966 7.0112,-4.475 6.9974,-4.461 3.8071,-4.106 -10.2802,1.142 -21.1647,6.923 -28.2222,14.99 -2.8279,3.234 -7.9827,12.757 -6.4654,11.944 0.5351,-0.286 1.4479,-1.044 2.0261,-1.683 z m -268.1501,-0.08 c 6.7183,-0.652 17.5149,-2.407 23.6627,-3.847 6.0413,-1.415 20.0391,-5.993 19.2064,-6.282 -0.976,-0.337 -50.7407,8.956 -55.9247,10.444 l -2.72,0.78 5.1686,-0.284 c 2.8418,-0.155 7.6156,-0.521 10.607,-0.811 z m 98.1848,-2.94 c 0,-0.657 0.8465,-0.816 4.3514,-0.816 2.3946,0 4.3529,-0.191 4.3529,-0.427 0,-0.234 -0.7772,-0.885 -1.7255,-1.445 -2.0307,-1.199 -5.8902,-4.602 -5.8902,-5.191 0,-0.227 2.2034,-0.583 4.8957,-0.795 2.6922,-0.211 4.8956,-0.471 4.8956,-0.581 0,-0.108 -1.3461,-2.074 -2.9913,-4.368 -1.6468,-2.293 -2.9929,-4.389 -2.9929,-4.657 0,-0.267 2.3499,-0.486 5.221,-0.486 h 5.2195 l -2.6368,-2.474 c -1.7254,-1.621 -2.2604,-2.386 -1.5481,-2.218 3.3738,0.801 4.8572,0.961 4.3514,0.471 -0.6075,-0.591 -7.8516,-3.394 -8.769,-3.394 -0.7016,0 -3.508,5.938 -5.3059,11.225 -1.5219,4.473 -3.3182,13.969 -2.8664,15.145 0.4086,1.067 1.4386,1.075 1.4386,0.02 z m 165.9902,0.09 c -0.3269,-0.394 -2.4208,-4.477 -4.6536,-9.074 l -4.0568,-8.357 -4.1571,8.396 -4.1556,8.394 6.9743,0.595 c 10.4035,0.888 10.7488,0.89 10.0488,0.05 z m -175.7954,-4.488 c -4.6104,-4.672 -6.7907,-6.396 -7.702,-6.092 -1.3677,0.456 9.3364,10.173 11.2377,10.203 0.2929,0 -1.2984,-1.846 -3.5357,-4.111 z m 147.2509,1.807 c -1.4386,-3.338 -3.7037,-9.602 -4.7229,-13.054 -0.6831,-2.319 -1.4232,-4.216 -1.6437,-4.216 -0.6477,0 -7.0452,14.94 -6.4839,15.139 0.5212,0.184 11.8329,2.637 12.6779,2.749 0.2559,0.03 0.3346,-0.243 0.1726,-0.618 z m -81.9034,-6.711 c 1.2845,-1.074 3.9474,-2.763 5.9165,-3.756 3.2751,-1.65 4.9157,-2.211 9.4983,-3.25 1.596,-0.362 1.579,-0.384 -4.6227,-6.276 l -6.2264,-5.912 7.13,0.318 7.1284,0.318 -2.629,-5.352 c -1.4448,-2.944 -2.5442,-5.434 -2.4425,-5.536 0.108,-0.108 2.2991,0.01 4.8818,0.265 2.5843,0.248 4.6983,0.387 4.6983,0.307 0,-0.08 -0.9699,-1.645 -2.1556,-3.48 -2.2975,-3.554 -3.0438,-5.281 -2.5103,-5.815 0.182,-0.182 2.7046,-0.05 5.605,0.287 2.9019,0.341 5.3644,0.529 5.4723,0.421 0.108,-0.108 -0.4209,-1.136 -1.178,-2.287 -0.7571,-1.149 -2.0107,-3.528 -2.7848,-5.287 l -1.4078,-3.197 4.6475,0.244 c 2.555,0.139 4.6474,0.181 4.6474,0.108 0,-0.08 -0.9175,-1.22 -2.04,-2.536 -1.1226,-1.317 -2.5689,-3.107 -3.2134,-3.977 -1.36,-1.832 -0.6569,-2.404 -6.5039,5.292 -6.6921,8.809 -10.9525,16.093 -16.6808,28.523 -3.4663,7.521 -8.6611,22.535 -7.7976,22.535 0.1234,0 1.2829,-0.879 2.5673,-1.952 z m -116.7374,-2.945 c 18.5835,-1.435 12.351,-2.033 -21.487,-2.06 -13.9114,-0.01 -26.5183,0.155 -28.014,0.36 l -2.72,0.379 5.167,0.709 c 12.6794,1.741 29.5976,1.962 47.054,0.612 z m 54.6681,0.602 c 0,-0.269 -1.1889,-1.251 -2.6414,-2.182 -1.4525,-0.933 -3.1055,-2.219 -3.6714,-2.857 l -1.0315,-1.163 4.2588,0.35 4.2589,0.349 -3.1009,-3.533 -3.1024,-3.534 -1.6483,2.586 c -1.8272,2.865 -3.3476,6.169 -3.8657,8.397 -0.3083,1.328 -0.1788,1.48 1.431,1.681 3.5372,0.438 9.1129,0.381 9.1129,-0.09 z m 111.2728,-1.979 c -0.3377,-1.798 -0.2791,-1.902 0.8912,-1.631 1.4525,0.335 11.3687,1.915 12.0426,1.918 0.2498,0 -0.3932,-1.159 -1.4294,-2.581 -2.1803,-2.99 -4.9389,-8.274 -4.5333,-8.681 0.1542,-0.154 3.2566,0.362 6.8971,1.142 3.6421,0.781 6.9757,1.419 7.4121,1.419 0.515,0 0.108,-0.831 -1.1657,-2.385 -2.7308,-3.334 -7.5216,-11.432 -6.8879,-11.644 0.2884,-0.09 2.6445,0.329 5.2349,0.944 2.5905,0.615 5.0268,1.118 5.4123,1.118 0.4579,0 -0.2406,-2.188 -2.0046,-6.288 -1.4879,-3.459 -2.5966,-6.398 -2.464,-6.532 0.1388,-0.139 2.905,0.36 6.1585,1.095 3.2535,0.736 5.9735,1.28 6.0429,1.21 0.062,-0.08 -0.845,-2.542 -2.0323,-5.492 -1.1873,-2.951 -2.0924,-5.421 -2.0122,-5.489 0.077,-0.06 2.572,0.216 5.5371,0.629 2.9636,0.413 5.4708,0.669 5.5695,0.57 0.093,-0.108 -1.4078,-2.851 -3.3491,-6.115 -1.9413,-3.264 -3.531,-6.123 -3.531,-6.351 0,-0.673 2.006,-0.478 9.5091,0.919 3.8842,0.721 7.1454,1.229 7.2472,1.127 0.1079,-0.108 -0.239,-1.005 -0.7602,-2.006 -0.9283,-1.78 -4.5488,-12.03 -4.3375,-12.279 0.062,-0.08 2.777,0.591 6.0398,1.467 3.2643,0.874 6.0213,1.503 6.1277,1.397 0.1079,-0.108 -0.6816,-2.904 -1.7517,-6.216 -1.0716,-3.312 -1.9475,-6.393 -1.9475,-6.848 0,-1.373 -0.8357,-0.973 -5.2703,2.52 -10.5546,8.311 -25.5192,25.163 -33.1796,37.363 -5.8455,9.312 -12.4697,23.698 -14.8242,32.191 -1.3554,4.891 -1.3507,4.748 -0.1696,5.056 1.7917,0.469 1.8873,0.372 1.5281,-1.547 z m 65.5403,-2.883 c -0.2421,-0.85 -0.8805,-4.68 -1.4155,-8.515 l -0.9746,-6.971 -1.2844,1.578 c -0.7062,0.868 -2.8773,3.904 -4.8247,6.746 l -3.5419,5.167 2.609,0.717 c 1.434,0.393 3.9535,1.168 5.5988,1.724 4.1586,1.403 4.3575,1.38 3.8333,-0.446 z m -79.3299,-2.947 c -0.5104,-0.615 -5.5541,-10.485 -5.5541,-10.869 0,-0.09 3.4894,0.123 7.7513,0.458 4.2635,0.339 7.8285,0.552 7.921,0.472 0.092,-0.08 -0.5412,-0.967 -1.4109,-1.971 -0.8681,-1.003 -2.7231,-3.538 -4.1216,-5.632 l -2.5411,-3.807 1.5049,-0.155 c 0.8265,-0.09 3.4015,0.05 5.7206,0.304 2.3176,0.251 4.2157,0.292 4.2157,0.09 0,-0.205 -0.5998,-1.444 -1.3307,-2.753 -0.7309,-1.309 -1.966,-3.818 -2.7416,-5.574 l -1.4124,-3.193 4.7816,0.356 c 2.6305,0.196 5.7422,0.498 6.9156,0.674 l 2.134,0.317 -1.2243,-1.831 c -1.4078,-2.107 -5.1146,-9.738 -4.8509,-9.989 0.092,-0.09 2.0122,0.163 4.2557,0.566 2.2436,0.404 4.3653,0.746 4.7138,0.763 0.3515,0.01 -0.6446,-2.933 -2.2436,-6.635 -3.403,-7.884 -3.7854,-7.488 5.6898,-5.923 3.4401,0.569 6.288,1.003 6.3297,0.963 0.077,-0.06 -5.1794,-8.956 -6.3081,-10.68 -0.4333,-0.661 -1.3739,0.06 -4.9712,3.809 -6.2819,6.545 -10.3434,11.641 -15.566,19.524 -7.187,10.849 -12.0888,21.339 -16.9845,36.347 l -1.4571,4.465 3.8394,0.185 c 2.111,0.108 4.6644,0.234 5.6744,0.295 1.4124,0.08 1.7038,-0.05 1.2706,-0.573 z m 52.9626,-7.947 -1.8611,-7.181 1.9984,0.369 c 1.0994,0.202 4.3852,0.902 7.3026,1.554 2.9158,0.652 5.3027,1.032 5.3027,0.842 0,-0.19 -0.626,-1.187 -1.3923,-2.217 -2.0832,-2.802 -5.2843,-8.162 -5.0268,-8.419 0.1234,-0.124 2.9035,0.501 6.1786,1.389 3.2735,0.887 6.248,1.614 6.6103,1.616 0.3824,0 0,-1.079 -0.9344,-2.58 -2.003,-3.252 -5.5387,-11.017 -5.0129,-11.008 0.2159,0 2.7802,0.702 5.6975,1.552 2.9174,0.848 5.3043,1.369 5.3043,1.154 0,-0.212 -0.7016,-1.95 -1.5574,-3.862 -0.8557,-1.911 -1.7069,-4.111 -1.8935,-4.888 l -0.3376,-1.414 7.4691,1.802 c 4.1093,0.993 7.7791,1.812 8.1569,1.823 0.5227,0.02 0.4826,-0.47 -0.1681,-2.021 -0.919,-2.192 -3.0391,-9.494 -2.8186,-9.713 0.077,-0.08 2.6814,0.583 5.7992,1.459 6.6967,1.879 7.3782,1.942 6.8092,0.638 -0.9868,-2.262 -4.0029,-13.05 -4.0275,-14.402 -0.015,-1.381 0.093,-1.459 1.7424,-1.146 1.9228,0.367 10.974,3.043 12.5067,3.697 0.8295,0.354 0.791,0.05 -0.3192,-2.508 -0.697,-1.602 -1.5851,-4.081 -1.9737,-5.511 -0.3886,-1.427 -0.8789,-2.703 -1.0871,-2.832 -0.5659,-0.349 -13.6014,8.09 -20.1424,13.04 -7.2486,5.486 -18.8903,16.826 -24.8576,24.213 -2.5381,3.141 -6.6366,8.771 -9.1098,12.512 -4.4115,6.673 -9.8608,16.199 -9.4737,16.563 0.1079,0.108 2.8849,0.716 6.1708,1.366 3.2874,0.649 6.0814,1.288 6.211,1.417 0.6784,0.679 0.4286,-0.761 -1.266,-7.304 z m -204.2982,2.33 c -5.275,-1.303 -15.9853,-2.97 -24.2903,-3.784 -8.9155,-0.874 -30.5644,-1.696 -30.0571,-1.143 1.5189,1.663 37.477,5.618 51.356,5.65 l 5.9827,0.02 z m 244.0572,-4.718 c -1.343,-3.357 -3.6775,-10.873 -3.4477,-11.102 0.1603,-0.161 2.3144,0.459 4.7892,1.377 2.4733,0.916 4.5889,1.574 4.6999,1.463 0.1079,-0.108 -0.4086,-2.979 -1.1565,-6.373 -0.7463,-3.394 -1.4371,-6.626 -1.5342,-7.179 -0.1388,-0.767 -1.4818,0.342 -5.6158,4.623 -7.7236,7.996 -12.9955,14.033 -12.6007,14.427 0.2744,0.275 13.0618,3.234 14.6854,3.397 0.2498,0.03 0.3315,-0.259 0.1804,-0.633 z m -235.7184,-0.446 c -0.9884,-0.988 -14.4696,-5.866 -21.7861,-7.882 -3.824,-1.054 -9.6449,-2.381 -12.9385,-2.95 -8.3727,-1.445 -29.1396,-3.047 -28.1759,-2.173 0.2406,0.218 2.885,0.821 5.8764,1.34 11.3641,1.972 40.5978,8.001 48.6853,10.043 4.6366,1.17 8.5408,2.145 8.6765,2.166 0.1388,0.02 -0.015,-0.223 -0.3377,-0.544 z m 90.1189,-0.271 c 0,-0.411 -5.6281,-7.223 -6.0043,-7.269 -0.3223,-0.05 -4.8757,6.737 -4.8757,7.255 0,0.179 2.4486,0.324 5.44,0.324 2.9914,0 5.44,-0.139 5.44,-0.31 z m -88.1683,-6.279 c -15.5259,-9.432 -33.9398,-15.629 -54.6064,-18.379 -4.4794,-0.596 -8.2371,-0.991 -8.3496,-0.878 -0.2298,0.231 -0.3485,0.195 15.9483,4.602 18.6637,5.045 35.5418,10.826 47.5967,16.3 4.376,1.986 4.0938,1.2 -0.589,-1.645 z m 323.2206,0.911 c 5.1794,-1.098 9.7358,-3.071 10.9848,-4.76 0.9514,-1.283 0.9992,-1.662 0.3947,-3.121 -0.976,-2.354 -4.2619,-5.139 -8.7104,-7.379 -5.6805,-2.861 -9.9486,-3.721 -18.2319,-3.678 -8.5547,0.05 -15.8605,1.385 -31.6638,5.804 -5.972,1.67 -11.2192,3.036 -11.6602,3.036 -0.441,0 -1.2767,0.368 -1.8581,0.817 -0.8234,0.639 -0.8527,0.748 -0.1387,0.498 1.141,-0.396 11.6601,1.662 24.927,4.877 8.8754,2.151 15.8219,3.644 20.1178,4.324 3.3013,0.523 12.5498,0.279 15.8357,-0.418 z m -321.2716,-9.29 c -14.8042,-13.602 -35.4647,-25.744 -55.1692,-32.43 -2.5195,-0.854 -4.6659,-1.47 -4.7677,-1.366 -0.1079,0.108 1.9583,1.222 4.5811,2.49 13.9916,6.76 35.6174,19.231 49.9173,28.786 4.4871,2.999 8.2818,5.467 8.4314,5.485 0.1542,0.02 -1.1966,-1.317 -2.9929,-2.965 z m 1.3014,-7.186 c -3.6159,-4.756 -19.0893,-20.043 -25.2355,-24.931 -7.0744,-5.628 -16.8734,-12.231 -24.9347,-16.8 -6.3945,-3.625 -9.0389,-4.581 -4.5858,-1.657 12.2832,8.061 43.8992,33.963 53.6951,43.99 1.6283,1.667 3.07,2.919 3.2042,2.785 0.1388,-0.139 -0.8296,-1.658 -2.1433,-3.387 z m 250.8264,2.059 c 0,-0.282 -0.2221,-0.649 -0.4934,-0.817 -0.4966,-0.307 -4.0214,-9.58 -3.7393,-9.838 0.093,-0.08 3.565,1.175 7.7344,2.782 4.1694,1.607 7.682,2.822 7.8053,2.698 0.1234,-0.123 -0.2929,-1.6 -0.9236,-3.284 -1.013,-2.708 -2.2805,-7.349 -2.0076,-7.349 0.062,0 3.124,0.863 6.82,1.917 3.6961,1.053 6.7892,1.847 6.8725,1.764 0.077,-0.08 -0.4349,-2.844 -1.1534,-6.133 -0.717,-3.289 -1.3107,-6.291 -1.3184,-6.672 0,-0.401 1.4186,0.218 3.3753,1.462 1.8627,1.184 3.4324,2.108 3.4864,2.052 0.046,-0.06 -0.031,-2.248 -0.2036,-4.872 -0.2852,-4.541 -0.3546,-4.756 -1.4463,-4.422 -2.9189,0.889 -15.6137,7.769 -21.0969,11.433 -8.0088,5.351 -20.0298,15.338 -20.0298,16.641 0,0.236 0.6723,0.452 1.4957,0.476 0.8218,0.03 4.1879,0.609 7.4784,1.295 7.1716,1.498 7.3443,1.518 7.3443,0.867 z m -245.6594,-3.977 c -12.8474,-22.074 -30.4965,-41.581 -48.5172,-53.624 -6.2125,-4.151 -6.9249,-4.468 -3.6483,-1.628 12.0287,10.426 24.2132,22.72 35.1749,35.489 3.8749,4.513 8.2077,9.551 9.6325,11.196 1.4232,1.646 3.6421,4.399 4.9327,6.12 2.1371,2.853 3.4061,4.133 2.4254,2.447 z m 138.7703,-13.626 c -0.8974,-0.647 -2.7986,-2.259 -4.2234,-3.582 -1.4263,-1.321 -2.6598,-2.303 -2.7415,-2.185 -0.077,0.124 -1.4248,1.647 -2.9837,3.391 -1.5589,1.744 -2.8341,3.335 -2.8356,3.536 0,0.2 3.2427,0.286 7.2085,0.191 l 7.2071,-0.173 z m 35.0052,-20.287 c -1.5512,-1.972 -3.1394,-3.71 -3.5295,-3.86 -0.3901,-0.154 -2.1741,1.037 -3.9643,2.635 -3.252,2.907 -3.2535,2.909 -1.7841,3.286 0.8096,0.209 3.6745,0.599 6.3667,0.867 2.6923,0.268 5.0838,0.527 5.3136,0.574 0.2282,0.05 -0.8527,-1.529 -2.4024,-3.502 z m 77.2329,3.179 c -0.108,-0.223 -1.2444,-2.305 -2.5442,-4.626 l -2.3623,-4.218 -3.7577,1.973 c -2.0662,1.086 -3.7562,2.168 -3.7562,2.404 0,0.236 1.7748,1.097 3.9428,1.914 2.1695,0.816 4.6782,1.796 5.5756,2.179 1.8797,0.8 3.1641,0.966 2.902,0.374 z m -33.636,-1.44 c 0,-0.123 -0.8496,-1.482 -1.8904,-3.027 -1.0393,-1.545 -2.6706,-4.274 -3.6236,-6.063 -1.0038,-1.882 -2.0122,-3.145 -2.3961,-2.999 -0.3639,0.139 -2.8033,1.777 -5.42,3.636 -3.3583,2.387 -4.5379,3.503 -4.009,3.798 0.4117,0.228 3.1964,1.041 6.1893,1.806 2.9914,0.764 6.541,1.742 7.8871,2.174 2.7477,0.88 3.2627,0.988 3.2627,0.675 z m 56.9424,-15.422 c -0.4194,-5.895 -2.1803,-14.863 -3.9782,-20.263 -1.7855,-5.354 -2.3869,-5.852 -1.5203,-1.254 0.7771,4.131 1.8657,16.646 1.8657,21.472 0,2.863 0.1234,3.209 1.4957,3.95 0.8219,0.446 1.7162,0.821 1.9845,0.833 0.2791,0.01 0.3454,-2.026 0.1542,-4.738 z m -10.3479,227.459 c -2.3469,-0.424 -6.0907,-1.381 -8.3188,-2.131 -18.2905,-6.138 -36.1339,-23.593 -43.9207,-42.964 l -0.8759,-2.176 1.7501,2.176 c 12.7874,15.905 31.5559,27.559 51.4532,31.947 5.992,1.322 18.2288,1.593 33.3029,0.739 6.4314,-0.366 8.7536,-0.319 9.7065,0.191 1.1672,0.623 0.6754,0.945 -7.093,4.641 -16.8441,8.015 -24.5754,9.644 -36.0043,7.577 z m -220.3052,-10.284 c 7.2163,-3.576 11.543,-6.788 13.3609,-9.921 l 0.9345,-1.61 -5.2858,-0.35 c -2.9081,-0.193 -7.4291,-0.352 -10.0458,-0.353 -2.6182,0 -4.76,-0.124 -4.76,-0.262 0,-0.139 0.4888,-1.06 1.0856,-2.039 1.232,-2.021 1.417,-4.374 0.4101,-5.191 -0.3747,-0.304 -2.8233,-1.66 -5.4415,-3.012 -5.4246,-2.805 -9.7697,-5.835 -15.6368,-10.908 -2.2436,-1.939 -7.056,-5.933 -10.6919,-8.873 -3.6374,-2.941 -6.5517,-5.411 -6.4761,-5.49 0.077,-0.08 1.2135,0.241 2.5318,0.706 6.4669,2.289 9.0821,2.067 10.3002,-0.875 0.5428,-1.308 0.441,-1.956 -0.6923,-4.418 -0.7294,-1.587 -2.6275,-4.58 -4.2172,-6.649 -1.6931,-2.202 -2.4887,-3.607 -1.9213,-3.389 1.9876,0.762 5.7777,1.571 6.0583,1.29 0.1588,-0.158 -1.3261,-2.638 -3.3013,-5.509 -1.9737,-2.871 -3.3815,-5.219 -3.1286,-5.219 0.2529,0 1.8843,0.263 3.6251,0.584 2.6892,0.498 3.2967,0.456 4.0245,-0.271 0.7817,-0.781 0.6985,-1.18 -0.9175,-4.458 -0.976,-1.98 -1.7023,-3.664 -1.6129,-3.744 0.093,-0.08 2.5443,0.123 5.4554,0.44 2.9097,0.32 5.4076,0.465 5.551,0.323 0.1388,-0.138 -0.077,-1.23 -0.4872,-2.414 -0.9283,-2.682 -0.7833,-2.731 5.0036,-1.732 l 4.3406,0.749 -0.2668,-2.368 c -0.3161,-2.802 -1.1102,-2.95 9.1977,1.719 11.1421,5.047 13.0433,6.227 14.1011,8.754 l 0.9221,2.206 -6.7322,-1.435 c -3.7022,-0.79 -6.7321,-1.258 -6.7321,-1.041 0,0.216 2.3869,1.425 5.3043,2.685 11.3965,4.925 10.8383,4.585 12.3155,7.501 l 1.3631,2.692 -5.0653,0.372 c -4.4886,0.328 -9.136,1.173 -7.6619,1.391 0.2991,0.05 3.8394,0.506 7.867,1.025 l 7.3227,0.944 2.3082,3.374 c 2.1387,3.127 2.222,3.373 1.121,3.373 -1.7963,0 -9.8437,1.747 -10.4328,2.266 -0.2837,0.251 2.6738,0.454 6.5718,0.454 h 7.0883 l 2.8542,2.99 2.8526,2.99 -1.5374,0.578 c -0.8449,0.319 -3.6174,1.402 -6.1616,2.407 -4.4176,1.746 -9.358,3.326 -17.6784,5.658 -3.2982,0.923 -3.5418,1.071 -1.8256,1.11 6.5363,0.139 19.0307,-1.992 26.378,-4.506 l 3.8811,-1.327 2.6136,2.653 c 1.4371,1.459 2.4979,2.768 2.3576,2.908 -0.1388,0.139 -3.8996,2.841 -8.3542,5.997 -4.4547,3.158 -7.8254,5.741 -7.4908,5.741 1.269,0 11.4536,-3.937 15.7463,-6.085 l 4.4747,-2.24 2.8681,2.277 c 1.5774,1.252 4.8262,3.655 7.2209,5.338 2.3931,1.684 4.5503,3.234 4.7939,3.444 0.5952,0.513 -6.7984,5.197 -13.4982,8.55 -6.4283,3.216 -13.7695,6.024 -21.5564,8.243 -9.1699,2.613 -14.8797,3.633 -29.3046,5.232 -2.2111,0.245 -1.7578,-0.08 4.7091,-3.275 z m 304.8067,-33.804 c 0,-0.622 4.8418,-7.349 7.7699,-10.799 8.0536,-9.484 19.5966,-17.134 25.8553,-17.134 2.3037,0 4.4516,1.251 4.4516,2.594 0,0.495 -2.1711,5.316 -4.8247,10.712 -2.6553,5.397 -5.1609,10.753 -5.5695,11.905 l -0.7417,2.092 -2.7277,-0.461 c -4.6073,-0.778 -17.5782,-0.482 -21.0861,0.482 -1.7193,0.471 -3.1271,0.746 -3.1271,0.609 z m -288.4359,-126.702 c -2.1094,-1.144 -1.8704,-1.539 0.2714,-0.45 2.0508,1.044 2.4131,1.314 1.7224,1.283 -0.2745,-0.02 -1.1719,-0.387 -1.9938,-0.833 z"
       id="path68" /></g></svg>
